<?xml version="1.0" encoding="utf-8"?><!-- Uploaded to: SVG Repo, www.svgrepo.com, Generator: SVG Repo Mixer Tools -->
<svg fill="#000000" width="800px" height="800px" viewBox="0 0 24 24" id="earbuds" data-name="Flat Color" xmlns="http://www.w3.org/2000/svg" class="icon flat-color"><path id="primary" d="M15,5h1.33A3.61,3.61,0,0,1,20,8.14a3.48,3.48,0,0,1-2.29,3.64,1,1,0,0,0-.69.94V17a2,2,0,0,1-2,2h0a2,2,0,0,1-2-2V7A2,2,0,0,1,15,5ZM9,5H7.67A3.61,3.61,0,0,0,4,8.14a3.48,3.48,0,0,0,2.29,3.64,1,1,0,0,1,.69.94V17a2,2,0,0,0,2,2H9a2,2,0,0,0,2-2V7A2,2,0,0,0,9,5Z" style="fill: rgb(0, 0, 0);"></path></svg>